<svg width="29" height="30" viewBox="0 0 29 30" fill="none" xmlns="http://www.w3.org/2000/svg">
<g clip-path="url(#clip0_52_244)">
<path d="M25.2503 7.35918L18.5101 0.613281H4.8314C4.23101 0.613281 3.7439 1.10039 3.7439 1.70078V20.9982H25.2503V7.35918Z" fill="#EFF3F5"/>
<path d="M18.5101 6.27168C18.5101 6.87207 18.9972 7.35918 19.5976 7.35918H25.256L18.5101 0.613281V6.27168Z" fill="#DBDFE0"/>
<path d="M3.74951 20.9926V28.2992C3.74951 28.8996 4.23662 29.3867 4.83701 29.3867H24.1685C24.7688 29.3867 25.256 28.8996 25.256 28.2992V20.9926H3.74951Z" fill="#F1786B"/>
<path d="M8.98321 19.7578C8.6377 19.7578 8.30352 19.6275 7.99766 19.3727C7.48223 18.9422 7.44258 18.4664 7.49356 18.1436C7.74278 16.6879 10.4502 15.3568 12.0248 14.6998C12.8801 12.5588 13.6221 10.0383 14.0809 8.14649C13.1633 6.18106 12.8404 4.79336 13.1236 4.00606C13.2652 3.61524 13.5541 3.36035 13.9619 3.26973L14.0186 3.2584L14.0752 3.26406C14.1205 3.26973 14.5227 3.33203 14.8512 3.77383C15.276 4.35156 15.3723 5.28613 15.1344 6.55488C15.0664 6.91738 14.9531 7.43848 14.8059 8.06152C15.6441 9.80606 16.8223 11.7318 17.7852 13.0686C18.5895 12.9553 19.3541 12.9156 19.9998 12.9836C21.2063 13.1082 21.4611 13.635 21.5065 13.9408C21.5744 14.3883 21.2459 14.8527 20.6852 15.0906C19.9092 15.4191 18.6404 15.3342 17.6096 13.9975C17.5643 13.9408 17.519 13.8785 17.4736 13.8162C16.1482 14.0371 14.6076 14.4563 13.0443 15.0396C12.8801 15.102 12.7215 15.1643 12.5629 15.2266C11.5037 17.8207 10.4672 19.3103 9.47598 19.6672C9.31739 19.7295 9.14747 19.7578 8.98321 19.7578ZM11.6453 15.6174C9.39669 16.6312 8.28086 17.6338 8.17891 18.2625C8.15626 18.3984 8.15626 18.608 8.44512 18.8459C8.71133 19.0668 8.96622 19.1234 9.24942 19.0215C10.0367 18.7383 10.875 17.3789 11.6453 15.6174ZM18.2723 13.7086C19.0369 14.6092 19.8979 14.6828 20.419 14.4562C20.6908 14.343 20.8438 14.1504 20.8268 14.0428C20.8098 13.9295 20.5549 13.7369 19.9318 13.6746C19.4674 13.6293 18.9066 13.6406 18.2723 13.7086ZM14.5566 9.09805C14.2111 10.4291 13.741 12.032 13.1916 13.584C13.0953 13.8502 13.0047 14.1051 12.9084 14.3543C14.1375 13.9012 15.6215 13.4594 17.0318 13.1932C16.2729 12.1113 15.3383 10.6104 14.5566 9.09805ZM14.0469 3.97207C13.9166 4.01738 13.8316 4.10234 13.7807 4.24961C13.5824 4.79336 13.843 5.81856 14.3471 7.03067C14.3924 6.81543 14.432 6.61719 14.466 6.43594C14.7266 5.02559 14.4773 4.41953 14.3018 4.18731C14.2055 4.05703 14.1035 3.99473 14.0469 3.97207Z" fill="#F1786B"/>
<path d="M19.6203 24.7535H18.3232V23.4338H19.6203C19.8639 23.4338 20.0621 23.2355 20.0621 22.992C20.0621 22.7484 19.8639 22.5502 19.6203 22.5502H17.8871C17.6436 22.5502 17.4453 22.7484 17.4453 22.992V27.3873C17.4453 27.6309 17.6436 27.8291 17.8871 27.8291C18.1307 27.8291 18.3289 27.6309 18.3289 27.3873V25.6314H19.626C19.8695 25.6314 20.0678 25.4332 20.0678 25.1896C20.0621 24.9461 19.8639 24.7535 19.6203 24.7535Z" fill="#EFF3F5"/>
<path d="M10.2746 22.5562H9.37966C9.13611 22.5562 8.93787 22.7544 8.93787 22.998V27.3933C8.93787 27.6369 9.13611 27.8351 9.37966 27.8351C9.62322 27.8351 9.82146 27.6369 9.82146 27.3933V25.6375H10.2746C11.1242 25.6375 11.8152 24.9464 11.8152 24.0968C11.8152 23.2472 11.1242 22.5562 10.2746 22.5562ZM10.2746 24.7539H9.82146V23.4341H10.2746C10.6371 23.4341 10.9316 23.7287 10.9316 24.0912C10.9316 24.4537 10.6371 24.7539 10.2746 24.7539Z" fill="#EFF3F5"/>
<path d="M14.0696 22.5559H12.9141C12.6705 22.5559 12.4723 22.7541 12.4723 22.9977V27.393C12.4723 27.6365 12.6705 27.8348 12.9141 27.8348H14.0696C15.5252 27.8348 16.709 26.651 16.709 25.1953C16.709 23.734 15.5252 22.5559 14.0696 22.5559ZM14.0696 26.9455H13.3559V23.4281H14.0696C15.0381 23.4281 15.8254 24.2154 15.8254 25.184C15.8311 26.1582 15.0381 26.9455 14.0696 26.9455Z" fill="#EFF3F5"/>
</g>
<defs>
<clipPath id="clip0_52_244">
<rect width="29" height="29" fill="white" transform="translate(0 0.5)"/>
</clipPath>
</defs>
</svg>
